<?xml version="1.0" standalone="no"?>
<!DOCTYPE svg PUBLIC "-//W3C//DTD SVG 20010904//EN"
 "http://www.w3.org/TR/2001/REC-SVG-20010904/DTD/svg10.dtd">
<svg version="1.0" xmlns="http://www.w3.org/2000/svg"
 width="1080.000000pt" height="1080.000000pt" viewBox="0 0 1080.000000 1080.000000"
 preserveAspectRatio="xMidYMid meet">

<g transform="translate(0.000000,1080.000000) scale(0.100000,-0.100000)"
fill="#000000" stroke="none">
<path d="M3109 8504 c-38 -42 -276 -256 -319 -288 l-40 -30 0 -1100 -1 -1101
-80 -70 -81 -70 1 -1204 c0 -662 4 -1207 8 -1211 7 -7 58 -21 388 -112 112
-31 708 -198 870 -244 50 -15 146 -41 215 -60 275 -74 573 -158 612 -173 23
-9 27 -17 30 -56 l3 -47 150 -39 c83 -21 195 -52 250 -68 197 -58 442 -129
530 -154 50 -13 241 -68 425 -122 184 -53 391 -113 460 -132 274 -76 446 -123
472 -129 23 -5 38 5 110 68 46 40 99 86 118 102 19 15 55 47 80 71 l46 42 1
1083 2 1083 71 85 70 85 -2 1195 -3 1195 -135 39 c-74 21 -184 54 -245 73 -60
18 -139 41 -175 50 -36 9 -105 29 -155 44 -49 16 -155 48 -235 71 -80 23 -208
61 -285 85 -77 24 -243 73 -370 109 -440 127 -542 158 -555 166 -18 11 -2 30
56 67 24 15 44 31 44 34 0 5 -170 59 -365 115 -49 14 -191 57 -315 95 -298 93
-413 128 -605 184 -225 65 -442 131 -565 170 -86 27 -439 125 -453 125 -2 0
-14 -12 -28 -26z m671 -1000 c107 -31 236 -67 285 -80 185 -51 300 -85 315
-93 9 -5 31 -12 50 -17 43 -10 42 -9 60 -17 8 -4 76 -22 150 -40 74 -19 136
-39 137 -44 2 -6 -25 -34 -61 -64 -36 -30 -65 -59 -65 -65 -1 -6 45 -24 102
-39 56 -16 125 -35 152 -43 28 -7 115 -31 195 -52 219 -58 383 -104 505 -144
61 -19 155 -47 210 -61 94 -24 260 -71 475 -135 88 -26 234 -68 321 -92 34 -9
37 -13 42 -56 3 -26 4 -373 2 -771 l-4 -724 -23 -25 c-13 -14 -40 -37 -61 -53
l-38 -28 1 -890 c0 -490 -2 -891 -4 -891 -7 0 -179 49 -336 95 -63 19 -218 64
-345 100 -366 104 -550 162 -547 171 2 5 21 21 43 36 l41 27 -59 16 c-32 9
-114 33 -183 55 -69 21 -201 60 -295 88 -93 28 -226 67 -295 88 -212 62 -390
114 -510 148 -197 56 -574 167 -582 172 -4 2 -7 443 -8 979 l-1 974 61 48 60
48 0 718 c0 394 3 717 8 717 4 0 95 -25 202 -56z"/>
<path d="M4414 6678 c-49 -46 -154 -144 -234 -218 -80 -73 -177 -163 -215
-199 -39 -36 -86 -79 -105 -96 l-35 -30 3 -936 2 -937 28 -5 c53 -9 390 -99
537 -144 83 -25 265 -76 405 -114 140 -39 289 -81 330 -94 41 -13 140 -40 220
-60 80 -21 172 -46 205 -56 33 -10 82 -22 109 -26 46 -6 51 -4 71 21 12 15 61
60 108 99 168 140 372 321 371 329 -1 4 -2 469 -2 1032 l-2 1024 -77 26 c-43
14 -181 54 -308 90 -126 35 -336 96 -465 135 -613 184 -777 232 -815 238 -41
5 -43 4 -131 -79z m526 -894 c129 -36 276 -78 325 -94 l90 -27 3 -488 2 -487
-27 6 c-16 4 -104 31 -198 60 -93 30 -228 70 -299 90 -71 20 -134 41 -140 45
-13 11 -11 961 2 961 4 0 113 -30 242 -66z"/>
</g>
</svg>
